<svg width="10" height="17" viewBox="0 0 10 17" fill="none" xmlns="http://www.w3.org/2000/svg">
<path d="M6.06424 12.8351C6.06424 13.9015 6.06533 14.9675 6.06424 16.0339C6.06369 16.4883 5.96913 16.5812 5.51436 16.5823C4.68845 16.5839 3.86199 16.5834 3.03608 16.5823C2.62996 16.5818 2.52501 16.4786 2.52446 16.081C2.52392 13.9145 2.52173 11.7486 2.52829 9.58216C2.52829 9.40927 2.49495 9.35471 2.30856 9.35903C1.70785 9.37253 1.10714 9.36551 0.506423 9.36335C0.105767 9.36173 0.00409949 9.26664 0.00245969 8.87712C-0.000819898 8.07429 -0.000819898 7.27092 0.00245969 6.46809C0.00409949 6.07749 0.107407 5.98132 0.504784 5.98078C1.11916 5.9797 1.73354 5.97592 2.34791 5.98402C2.49167 5.98618 2.52884 5.94782 2.5272 5.80627C2.52009 5.18551 2.51517 4.56421 2.52884 3.944C2.5507 2.98395 2.79776 2.09306 3.42635 1.33562C4.05221 0.581953 4.88249 0.188643 5.84013 0.0665445C6.79067 -0.0544739 7.7494 0.0281859 8.70431 0.020082C8.91803 0.017921 9.03828 0.136778 9.03992 0.349641C9.04702 1.1865 9.04757 2.02337 9.03992 2.85969C9.03773 3.09038 8.9142 3.19303 8.64582 3.20006C8.07244 3.2141 7.49906 3.2168 6.92568 3.22221C6.77427 3.22383 6.62614 3.24382 6.48621 3.30217C6.26702 3.39347 6.12819 3.56365 6.09977 3.78894C6.0134 4.47453 6.0697 5.1639 6.06424 5.85166C6.06314 5.98024 6.16536 5.93594 6.22876 5.93648C6.95246 5.93918 7.67615 5.93756 8.39985 5.93864C8.86719 5.93864 8.9623 6.03372 8.9623 6.49673C8.9623 7.27957 8.96285 8.0624 8.9623 8.84524C8.9623 9.2553 8.87703 9.33958 8.4556 9.34066C7.7248 9.34282 6.99455 9.34606 6.26429 9.33742C6.10468 9.3358 6.05986 9.3747 6.06096 9.53623C6.06861 10.6362 6.06478 11.7362 6.06478 12.8361L6.06424 12.8351Z" fill="black"/>
</svg>
