<svg width="16" height="16" viewBox="0 0 16 16" fill="none" xmlns="http://www.w3.org/2000/svg">
<path d="M9.66245 11.8682C9.66245 12.6881 9.66329 13.5077 9.66245 14.3276C9.66203 14.6769 9.58933 14.7484 9.23968 14.7492C8.60469 14.7505 7.96927 14.75 7.33427 14.7492C7.02203 14.7488 6.94134 14.6695 6.94092 14.3637C6.9405 12.6981 6.93882 11.0328 6.94386 9.36719C6.94386 9.23426 6.91823 9.19231 6.77492 9.19563C6.31307 9.20602 5.85121 9.20062 5.38936 9.19896C5.08132 9.19771 5.00315 9.12461 5.00189 8.82512C4.99937 8.20787 4.99937 7.59021 5.00189 6.97296C5.00315 6.67264 5.08258 6.5987 5.3881 6.59829C5.86046 6.59746 6.33282 6.59455 6.80518 6.60078C6.91571 6.60244 6.94428 6.57295 6.94302 6.46412C6.93756 5.98685 6.93378 5.50917 6.94428 5.03232C6.96109 4.29419 7.15104 3.60924 7.63433 3.02688C8.11552 2.44743 8.75387 2.14504 9.49015 2.05116C10.221 1.95812 10.9581 2.02167 11.6923 2.01544C11.8566 2.01378 11.949 2.10516 11.9503 2.26882C11.9558 2.91224 11.9562 3.55566 11.9503 4.19866C11.9486 4.37602 11.8536 4.45495 11.6473 4.46034C11.2064 4.47114 10.7656 4.47322 10.3248 4.47738C10.2084 4.47862 10.0945 4.49399 9.98689 4.53885C9.81837 4.60905 9.71162 4.73989 9.68977 4.91311C9.62337 5.44022 9.66666 5.97024 9.66245 6.49901C9.66161 6.59787 9.7402 6.56381 9.78895 6.56423C10.3454 6.5663 10.9018 6.56506 11.4582 6.56589C11.8175 6.56589 11.8906 6.63899 11.8906 6.99497C11.8906 7.59685 11.891 8.19873 11.8906 8.80061C11.8906 9.11588 11.8251 9.18068 11.501 9.18151C10.9392 9.18317 10.3777 9.18567 9.81626 9.17902C9.69355 9.17777 9.65909 9.20768 9.65993 9.33188C9.66582 10.1776 9.66287 11.0233 9.66287 11.869L9.66245 11.8682Z" fill="#666666"/>
</svg>
