<svg width="51" height="39" viewBox="0 0 51 39" fill="none" xmlns="http://www.w3.org/2000/svg">
<path d="M12.6722 17.3004C13.1249 13.8684 16.1587 10.7619 21.7081 8.05482L22.7074 7.56731L18.6105 0.00344065L17.6856 0.472232C5.95033 6.42095 0 14.8279 0 25.4598C0 29.1282 1.16448 32.2964 3.46132 34.8769C5.79037 37.4932 8.61681 38.8199 11.8627 38.8199C14.7792 38.8199 17.2523 37.7813 19.2133 35.7327C21.1614 33.6973 22.1492 31.1691 22.1492 28.2183C22.1492 25.4299 21.1514 22.9449 19.1836 20.8324C17.4479 18.969 15.2609 17.7837 12.6722 17.3004ZM17.6735 34.2589C16.1086 35.8938 14.2079 36.6884 11.8627 36.6884C9.21475 36.6884 6.98747 35.6322 5.05362 33.4596C3.08725 31.2507 2.13135 28.6339 2.13135 25.4597C2.13135 20.5868 3.5035 16.1875 6.20944 12.3842C8.79136 8.75534 12.6639 5.55152 17.7294 2.85132L19.7818 6.6405C13.6091 9.87522 10.4816 13.7637 10.4816 18.2092V19.161L11.4273 19.2682C13.9749 19.5566 16.0016 20.5434 17.624 22.285C19.2347 24.0142 20.0178 25.9551 20.0178 28.2182C20.0179 30.6349 19.2509 32.6107 17.6735 34.2589Z" fill="#D52722"/>
<path d="M40.5948 17.3035C41.0421 13.8686 44.0509 10.7605 49.5558 8.05319L50.5398 7.5693L46.5447 0L45.6106 0.471307C33.8217 6.41972 27.8443 14.8271 27.8443 25.4598C27.8443 29.1305 29.0236 32.3005 31.3495 34.8816C33.7043 37.4947 36.5424 38.8197 39.7857 38.8197C42.7058 38.8197 45.1676 37.7792 47.1024 35.7268C49.0207 33.6922 49.9934 31.166 49.9934 28.2181C49.9934 25.4297 48.9956 22.9447 47.0279 20.8322C45.2958 18.9729 43.1352 17.7886 40.5948 17.3035ZM45.5518 34.2647C44.014 35.8957 42.128 36.6885 39.7857 36.6885C37.1351 36.6885 34.8935 35.6308 32.9328 33.4549C30.9428 31.2465 29.9755 28.6314 29.9755 25.4598C29.9755 20.5877 31.3539 16.1891 34.0718 12.3862C36.6652 8.75814 40.5545 5.55482 45.6415 2.85492L47.6383 6.63827C41.5101 9.8741 38.4049 13.7633 38.4049 18.2093V19.159L39.3482 19.2679C41.8435 19.5559 43.8453 20.5428 45.4685 22.2851C47.0792 24.0142 47.862 25.9549 47.862 28.2182C47.8621 30.638 47.1064 32.6159 45.5518 34.2647Z" fill="#D52722"/>
</svg>
