<svg width="21" height="21" viewBox="0 0 21 21" fill="none" xmlns="http://www.w3.org/2000/svg">
<path d="M10.5736 14.8295C12.9237 14.8295 14.8288 12.9244 14.8288 10.5743C14.8288 8.22421 12.9237 6.31909 10.5736 6.31909C8.22348 6.31909 6.31836 8.22421 6.31836 10.5743C6.31836 12.9244 8.22348 14.8295 10.5736 14.8295Z" stroke="black" stroke-width="1.5957" stroke-linecap="round" stroke-linejoin="round"/>
<path d="M1 14.8294V6.31901C1 3.3814 3.3814 1 6.31901 1H14.8294C17.767 1 20.1484 3.3814 20.1484 6.31901V14.8294C20.1484 17.767 17.767 20.1484 14.8294 20.1484H6.31901C3.3814 20.1484 1 17.767 1 14.8294Z" stroke="black" stroke-width="1.5957"/>
<path d="M16.4258 4.73339L16.4358 4.72228" stroke="black" stroke-width="1.5957" stroke-linecap="round" stroke-linejoin="round"/>
</svg>
