<svg width="16" height="16" viewBox="0 0 16 16" fill="none" xmlns="http://www.w3.org/2000/svg">
<path d="M1.0222 7.22871C1.0222 7.62984 1.0222 8.03096 1.0222 8.43209C1.01471 8.44386 1.00722 8.44386 1 8.43209V7.22924C1.00722 7.21694 1.01471 7.21747 1.0222 7.22924V7.22871Z" fill="#666666"/>
<path d="M6.64094 14.6609C6.82251 14.6607 7.00409 14.6596 7.18567 14.6607C7.22819 14.6609 7.27552 14.646 7.31002 14.6869H6.64174C6.63318 14.6815 6.63024 14.6756 6.63265 14.67C6.63532 14.6641 6.63799 14.6612 6.64094 14.6612V14.6609Z" fill="#666666"/>
<path d="M8.43213 14.6869C8.53134 14.631 8.63884 14.6674 8.74234 14.6618C8.86134 14.6551 8.98114 14.6604 9.10068 14.6604C9.10923 14.6663 9.11218 14.6722 9.10923 14.6781C9.10629 14.684 9.10335 14.6869 9.10041 14.6869H8.43213Z" fill="#666666"/>
<path d="M7.2834 1.00027C7.17483 1.0575 7.05877 1.01818 6.94619 1.0254C6.84483 1.03209 6.74268 1.02621 6.64079 1.02567C6.6325 1.01979 6.6301 1.01391 6.63304 1.00829C6.63598 1.00294 6.63892 1 6.64186 1H7.2834V1.00027Z" fill="#666666"/>
<path d="M9.10133 1.02621C8.92857 1.02647 8.75609 1.02754 8.58333 1.02621C8.54081 1.02594 8.49348 1.04092 8.45898 1H9.10052C9.10908 1.00562 9.11229 1.01123 9.10962 1.01711C9.10694 1.023 9.10427 1.02594 9.10133 1.02594V1.02621Z" fill="#666666"/>
<path d="M1.00027 8.4314C1.00776 8.43193 1.01524 8.43193 1.02246 8.4314C1.02246 8.62741 1.02246 8.82343 1.02246 9.01972H1.01123L1 9.01945V8.4314H1.00027Z" fill="#666666"/>
<path d="M1.02246 7.22846H1.01123H1V6.66714C1.00749 6.66634 1.01498 6.66634 1.02246 6.66688C1.02246 6.85407 1.02246 7.04126 1.02246 7.22819V7.22846Z" fill="#666666"/>
<path d="M5.99929 14.6877C6.07444 14.6321 6.15947 14.673 6.23917 14.6625C6.24826 14.6679 6.25147 14.6732 6.24853 14.6791C6.24558 14.6847 6.24264 14.6877 6.2397 14.6877H5.99902H5.99929Z" fill="#666666"/>
<path d="M9.71575 1C9.6406 1.05562 9.55583 1.01498 9.47587 1.0246C9.46678 1.01952 9.46357 1.01417 9.46624 1.00856C9.46919 1.00294 9.47213 1 9.47507 1H9.71575Z" fill="#666666"/>
<path d="M6.23978 1.02487C6.16812 1.02407 6.09671 1.02327 6.02505 1.02246C6.01756 1.01685 6.01542 1.01177 6.01836 1.00695C6.0213 1.00241 6.02398 1 6.02665 1H6.24059C6.24941 1.00562 6.25235 1.01123 6.24914 1.01658C6.24593 1.02193 6.24299 1.0246 6.23978 1.0246V1.02487Z" fill="#666666"/>
<path d="M6.64139 1.00027C6.64139 1.00882 6.64086 1.01738 6.64032 1.02594C6.56919 1.02594 6.49805 1.02594 6.42692 1.02594C6.41836 1.02006 6.41569 1.01417 6.41863 1.00856C6.42157 1.00294 6.42451 1 6.42746 1H6.64139V1.00027Z" fill="#666666"/>
<path d="M6.63957 14.6614C6.6401 14.67 6.64037 14.6785 6.64037 14.6871H6.42643C6.41761 14.6815 6.41467 14.6756 6.41761 14.67C6.42028 14.6641 6.42322 14.6611 6.42616 14.6611C6.4973 14.6611 6.56843 14.6611 6.63957 14.6611V14.6614Z" fill="#666666"/>
<path d="M9.28867 14.6611L9.50288 14.6627C9.5109 14.6684 9.51357 14.6737 9.51063 14.6791C9.50769 14.6841 9.50475 14.6868 9.50207 14.6868H9.28814C9.27931 14.6809 9.27637 14.675 9.27958 14.6694C9.28252 14.6638 9.28573 14.6611 9.28867 14.6611Z" fill="#666666"/>
<path d="M6.42719 1C6.42719 1.00853 6.42719 1.01733 6.42665 1.02586C6.36426 1.0256 6.30214 1.02506 6.23975 1.0248C6.24028 1.01653 6.24055 1.00827 6.24055 1.00027H6.42719V1Z" fill="#666666"/>
<path d="M9.1009 1.02586C9.10036 1.01733 9.1001 1.0088 9.1001 1H9.28674C9.29527 1.0056 9.29847 1.0112 9.29554 1.0168C9.29287 1.02266 9.28994 1.0256 9.28727 1.0256C9.22515 1.0256 9.16302 1.0256 9.1009 1.02586Z" fill="#666666"/>
<path d="M9.28764 1.0256C9.28711 1.01706 9.28711 1.00853 9.28711 1H9.47375C9.47375 1.00827 9.47375 1.01626 9.47455 1.02453C9.41243 1.0248 9.35003 1.02506 9.28791 1.0256H9.28764Z" fill="#666666"/>
<path d="M10.0616 1C9.99952 1.04666 9.93712 1.03973 9.875 1H10.0616Z" fill="#666666"/>
<path d="M6.42665 14.6607C6.42692 14.6692 6.42719 14.678 6.42692 14.6865H6.24028C6.24028 14.6783 6.24028 14.6697 6.23975 14.6615C6.30214 14.6612 6.36426 14.6609 6.42665 14.6604V14.6607Z" fill="#666666"/>
<path d="M9.28727 14.6612C9.28701 14.6697 9.28674 14.6783 9.28674 14.6868H9.1001C9.1001 14.678 9.1001 14.6692 9.1001 14.6604C9.16249 14.6607 9.22461 14.6609 9.287 14.6612H9.28727Z" fill="#666666"/>
<path d="M9.50098 14.687C9.50098 14.679 9.50124 14.671 9.50204 14.663C9.56417 14.6691 9.63136 14.6353 9.68762 14.687H9.50098Z" fill="#666666"/>
<path d="M6.0257 1C6.02543 1.00747 6.0249 1.01493 6.0241 1.0224C5.97078 1.01813 5.91212 1.05253 5.86572 1H6.0257Z" fill="#666666"/>
<path d="M5.65234 14.687C5.70567 14.6433 5.759 14.6462 5.81232 14.687H5.65234Z" fill="#666666"/>
<path d="M9.82129 14.6869C9.87462 14.6475 9.92794 14.644 9.98127 14.6869H9.82129Z" fill="#666666"/>
<path d="M5.59752 1.02213C5.56926 1.02133 5.53406 1.04533 5.51807 1H5.59806C5.60685 1.00507 5.60979 1.01013 5.60659 1.01493C5.60365 1.01973 5.60046 1.02213 5.59752 1.02213Z" fill="#666666"/>
<path d="M5.59863 1.02213C5.59863 1.01466 5.59917 1.0072 5.59917 1H5.67916C5.68795 1.00507 5.69089 1.01013 5.68769 1.01493C5.68475 1.01973 5.68155 1.02213 5.67862 1.02213C5.65196 1.02213 5.6253 1.02213 5.59863 1.02213Z" fill="#666666"/>
<path d="M5.67871 1.02193C5.67898 1.01471 5.67925 1.00722 5.67925 1H5.73273C5.72524 1.03316 5.70171 1.02647 5.67871 1.02193Z" fill="#666666"/>
<path d="M14.6653 5.1155C14.6653 5.09791 14.6653 5.08004 14.6653 5.06244C14.673 5.05178 14.6805 5.05151 14.6874 5.06324V5.11657C14.6794 5.1291 14.672 5.1283 14.665 5.1155H14.6653Z" fill="#666666"/>
<path d="M14.6872 5.06327C14.6797 5.06273 14.6723 5.06246 14.665 5.06246C14.665 5.04455 14.665 5.02663 14.665 5.00898C14.6731 4.99775 14.6803 4.99855 14.6872 5.01005V5.06353V5.06327Z" fill="#666666"/>
<path d="M14.665 5.11597C14.6725 5.11597 14.68 5.1165 14.6875 5.11704V5.17052C14.6618 5.15982 14.6607 5.13896 14.665 5.11597Z" fill="#666666"/>
<path d="M14.6646 10.411C14.6608 10.388 14.6627 10.3677 14.6873 10.3564V10.4099C14.6804 10.4217 14.6726 10.4217 14.6646 10.411Z" fill="#666666"/>
<path d="M14.665 10.4112C14.6725 10.4107 14.6803 10.4104 14.6878 10.4102V10.4636C14.6808 10.4749 14.6733 10.4759 14.6653 10.4647C14.6653 10.4471 14.665 10.4291 14.665 10.4115V10.4112Z" fill="#666666"/>
<path d="M14.665 10.4644C14.6725 10.4644 14.68 10.4639 14.6875 10.4634V10.5169C14.6805 10.5284 14.6731 10.5286 14.665 10.5177C14.665 10.5 14.665 10.4821 14.665 10.4644Z" fill="#666666"/>
<path d="M14.665 10.5176C14.6725 10.5176 14.68 10.5176 14.6875 10.5168V10.5703C14.6803 10.5821 14.6731 10.5821 14.665 10.5711C14.665 10.5535 14.665 10.5356 14.665 10.5179V10.5176Z" fill="#666666"/>
<path d="M14.665 10.5711C14.6725 10.5711 14.68 10.5708 14.6875 10.5703V10.6238C14.6538 10.6174 14.6613 10.5933 14.665 10.5711Z" fill="#666666"/>
<path d="M14.6878 5.01003C14.6803 5.00949 14.6731 5.00922 14.6656 5.00896C14.6621 4.98676 14.6538 4.96269 14.6878 4.95654V5.01003Z" fill="#666666"/>
<path d="M10.1436 14.6875C10.1615 14.6484 10.1791 14.6484 10.197 14.6875H10.1436Z" fill="#666666"/>
<path d="M14.6865 4.87624C14.666 4.85378 14.6737 4.82597 14.6729 4.80003C14.6646 4.53341 14.6424 4.26893 14.5855 4.00686C14.3953 3.13267 13.9766 2.39807 13.2679 1.8413C12.5809 1.30165 11.7824 1.07514 10.9242 1.02888C10.6993 1.01685 10.4736 1.02032 10.2487 1H10.0615C9.99922 1.02193 9.93692 1.02193 9.87434 1H9.71389C9.63313 1.02942 9.54916 1.00615 9.46733 1.01391C9.40529 1.01391 9.34298 1.01391 9.28094 1.01391C9.21729 1.01391 9.15338 1.01391 9.08973 1.01391C8.879 1.00562 8.66774 1.03102 8.45755 1H7.28144C7.06991 1.03075 6.85731 1.00562 6.64552 1.01391C6.57332 1.01391 6.50111 1.01391 6.42864 1.01391C6.36607 1.01391 6.30349 1.01391 6.24091 1.01391C6.17272 1.01391 6.10453 1.01391 6.03634 1.01391C5.97938 1.00722 5.92001 1.02808 5.86465 1H5.73094C5.71303 1.01952 5.68896 1.01203 5.6673 1.01391C5.64457 1.01391 5.62157 1.01391 5.59884 1.01391C5.57156 1.01016 5.54134 1.02353 5.51728 1H5.41031C5.25307 1.03209 5.09235 1.01899 4.9343 1.02246C4.55804 1.03075 4.19007 1.08076 3.82719 1.1765C2.85111 1.43402 2.09057 1.98357 1.58354 2.86017C1.18321 3.55198 1.04389 4.316 1.02864 5.10435C1.01848 5.63357 1.00404 6.1628 1.01313 6.69202C1.01313 6.87386 1.01313 7.05571 1.01313 7.23755C1.01313 7.63387 1.01313 8.03019 1.01313 8.4265C1.01313 8.6169 1.01313 8.80731 1.01313 8.99771C1.00966 9.46489 1.01955 9.9318 1.0249 10.3987C1.03052 10.8715 1.06421 11.34 1.17733 11.8011C1.35249 12.514 1.67928 13.1446 2.22267 13.6438C2.97145 14.3319 3.87666 14.6285 4.88082 14.6614C5.04822 14.667 5.2167 14.6606 5.3833 14.6865H5.65072C5.7042 14.6646 5.75769 14.6646 5.81117 14.6865H5.99836C6.07939 14.6571 6.16336 14.6804 6.24546 14.6726C6.30777 14.6726 6.37008 14.6726 6.43239 14.6726C6.50432 14.6726 6.57652 14.6726 6.64846 14.6726C6.86828 14.6806 7.08863 14.656 7.30818 14.6865H8.43108C8.6509 14.656 8.87178 14.6806 9.09214 14.6726C9.15605 14.6726 9.2197 14.6726 9.28361 14.6726C9.35287 14.6726 9.42187 14.6726 9.49113 14.6726C9.55638 14.6796 9.62377 14.6571 9.68768 14.6865H9.82139C9.87487 14.6646 9.92836 14.6646 9.98184 14.6865H10.1423C10.1602 14.6697 10.1779 14.6697 10.1958 14.6865H10.276C10.3578 14.6571 10.4426 14.6764 10.526 14.6734C10.9218 14.6595 11.3165 14.6451 11.7062 14.5595C12.5769 14.368 13.3091 13.9514 13.8637 13.2457C14.367 12.6049 14.6106 11.8671 14.6614 11.0595C14.6678 10.9587 14.6614 10.8565 14.6868 10.7571V10.6234C14.6686 10.6065 14.6742 10.584 14.6729 10.5632C14.6729 10.5469 14.6729 10.5308 14.6729 10.5145C14.6729 10.4982 14.6729 10.4819 14.6729 10.4656C14.6729 10.4493 14.6729 10.4329 14.6729 10.4166C14.6742 10.3958 14.6684 10.3733 14.6868 10.3562V5.1704C14.6689 5.15382 14.6742 5.13189 14.6729 5.1113C14.6729 5.09553 14.6729 5.07948 14.6729 5.0637C14.6729 5.04766 14.6729 5.03188 14.6729 5.01583C14.6742 4.99524 14.6686 4.97305 14.6868 4.95647V4.87624H14.6865ZM13.4556 10.249C13.4412 10.6897 13.427 11.1312 13.3096 11.5599C13.0248 12.5996 12.326 13.1807 11.2788 13.3481C10.5065 13.4716 9.72432 13.446 8.94532 13.4556C8.58885 13.4601 8.23238 13.4564 7.87618 13.4564C6.88727 13.4556 5.89808 13.4682 4.91023 13.4034C4.4131 13.3708 3.92907 13.2759 3.49532 13.0176C2.81474 12.6121 2.47485 11.9824 2.36494 11.2186C2.25396 10.449 2.27321 9.67214 2.26599 8.89769C2.25583 7.80181 2.25396 6.70566 2.28418 5.61004C2.29755 5.12521 2.30477 4.63851 2.42751 4.16464C2.69199 3.14363 3.36348 2.55959 4.38556 2.36518C4.97923 2.25232 5.58226 2.26088 6.18315 2.25366C7.46623 2.23788 8.74931 2.23574 10.0321 2.26115C10.5121 2.27078 10.9938 2.27907 11.4666 2.38577C12.5384 2.62778 13.2198 3.36372 13.377 4.45318C13.4727 5.11692 13.4711 5.78574 13.4759 6.45321C13.485 7.71837 13.4971 8.98353 13.4556 10.2484V10.249Z" fill="#666666"/>
<path d="M12.3428 4.19278C12.3418 4.649 11.9757 5.01242 11.5189 5.01028C11.0662 5.00814 10.7011 4.63643 10.7046 4.18128C10.7081 3.73255 11.0726 3.37234 11.5235 3.37207C11.9818 3.37207 12.3439 3.73442 12.3428 4.19278Z" fill="#666666"/>
<path d="M7.86986 4.33008C5.9292 4.33088 4.35223 5.90678 4.35303 7.8445C4.35383 9.78276 5.9316 11.3603 7.86959 11.3611C9.80865 11.3619 11.3848 9.78516 11.3848 7.84477C11.3848 5.90304 9.81105 4.32928 7.87013 4.33008H7.86986ZM7.87066 10.1224C6.6055 10.1229 5.5877 9.10324 5.59171 7.83889C5.59546 6.57827 6.60924 5.56716 7.86879 5.56662C9.13422 5.56609 10.1512 6.58522 10.148 7.85039C10.1448 9.11073 9.13127 10.1218 7.87066 10.1224Z" fill="#666666"/>
</svg>
