<svg width="16" height="16" viewBox="0 0 16 16" fill="none" xmlns="http://www.w3.org/2000/svg">
<path d="M8.42843 6.913C8.66898 6.55274 8.96029 6.26522 9.3251 6.05005C9.90887 5.70608 10.5438 5.64092 11.2022 5.70304C11.664 5.74661 12.1053 5.85836 12.4966 6.11899C13.0455 6.48456 13.3171 7.02855 13.4683 7.64792C13.6069 8.21729 13.6335 8.79879 13.635 9.38104C13.6384 10.749 13.6342 12.1169 13.6391 13.4852C13.6395 13.6045 13.599 13.6208 13.4952 13.6204C12.7803 13.6167 12.0659 13.6159 11.351 13.6212C11.2457 13.622 11.2188 13.5973 11.2192 13.4905C11.2226 12.1934 11.2219 10.8963 11.2192 9.59962C11.2185 9.32535 11.1999 9.05146 11.1453 8.78098C10.9828 7.97674 10.4638 7.71952 9.73953 7.80475C9.06068 7.88469 8.6936 8.28662 8.58375 9.01775C8.54359 9.28519 8.52844 9.55378 8.52882 9.82388C8.52995 11.0498 8.52768 12.276 8.53185 13.5019C8.53222 13.6136 8.50343 13.6413 8.39244 13.6405C7.68253 13.6352 6.97261 13.6352 6.2627 13.6405C6.14981 13.6413 6.1123 13.6208 6.1123 13.4973C6.11647 11.0028 6.11609 8.50823 6.11268 6.01368C6.11268 5.897 6.13996 5.86442 6.25929 5.86556C6.94079 5.87162 7.62229 5.87048 8.3038 5.86632C8.40267 5.86556 8.43297 5.89208 8.4307 5.99209C8.42426 6.29893 8.42843 6.60616 8.42843 6.913Z" fill="#666666"/>
<path d="M2.1919 9.75085C2.1919 8.5068 2.19417 7.26275 2.18849 6.01869C2.18773 5.89103 2.22107 5.86413 2.34419 5.86527C3.05372 5.87171 3.76326 5.87019 4.47279 5.86603C4.57432 5.86527 4.60879 5.88459 4.60879 5.99596C4.60538 8.50301 4.60538 11.0104 4.60879 13.5175C4.60879 13.6202 4.57772 13.6406 4.4815 13.6402C3.7625 13.6361 3.04349 13.6345 2.32449 13.6414C2.2044 13.6425 2.19 13.5997 2.19038 13.4974C2.19341 12.2484 2.19228 10.9998 2.19228 9.75085H2.1919Z" fill="#666666"/>
<path d="M4.79192 3.39261C4.79685 4.16276 4.1699 4.80334 3.40695 4.80751C2.63945 4.81168 2 4.17147 2 3.39791C2 2.63686 2.62506 2.00687 3.38763 2.00006C4.15588 1.99324 4.787 2.61905 4.79192 3.39261Z" fill="#666666"/>
</svg>
