<svg width="18" height="18" viewBox="0 0 18 18" fill="none" xmlns="http://www.w3.org/2000/svg">
<path d="M9.94139 7.59795C10.3134 7.04079 10.764 6.59612 11.3281 6.26334C12.231 5.73137 13.2129 5.6306 14.2311 5.72668C14.9453 5.79406 15.6279 5.96689 16.2331 6.36997C17.082 6.93534 17.5021 7.77665 17.7358 8.73455C17.9502 9.61511 17.9913 10.5144 17.9936 11.4149C17.9989 13.5305 17.9924 15.6461 18 17.7622C18.0006 17.9468 17.9379 17.972 17.7774 17.9714C16.6719 17.9655 15.5669 17.9644 14.4614 17.9726C14.2985 17.9737 14.2569 17.9357 14.2575 17.7704C14.2628 15.7644 14.2616 13.7584 14.2575 11.753C14.2563 11.3288 14.2276 10.9052 14.1433 10.4869C13.8919 9.24308 13.0893 8.84528 11.9691 8.9771C10.9192 9.10071 10.3515 9.72232 10.1816 10.8531C10.1195 11.2667 10.0961 11.6821 10.0966 12.0998C10.0984 13.9957 10.0949 15.8921 10.1013 17.788C10.1019 17.9608 10.0574 18.0036 9.88573 18.0024C8.78781 17.9942 7.68989 17.9942 6.59197 18.0024C6.41738 18.0036 6.35938 17.972 6.35938 17.781C6.36582 13.923 6.36523 10.0651 6.35996 6.2071C6.35996 6.02665 6.40214 5.97626 6.58669 5.97802C7.64068 5.9874 8.69466 5.98564 9.74864 5.97919C9.90155 5.97802 9.94842 6.01903 9.94491 6.1737C9.93495 6.64826 9.94139 7.1234 9.94139 7.59795Z" fill="black"/>
<path d="M0.296308 11.9871C0.296308 10.0631 0.299823 8.13911 0.291035 6.21511C0.289863 6.01768 0.34142 5.97608 0.531828 5.97784C1.62916 5.9878 2.7265 5.98545 3.82384 5.97901C3.98085 5.97784 4.03417 6.00772 4.03417 6.17996C4.02889 10.0573 4.02889 13.9351 4.03417 17.8124C4.03417 17.9712 3.98612 18.0028 3.83731 18.0023C2.72533 17.9958 1.61335 17.9935 0.501363 18.004C0.315642 18.0058 0.293379 17.9396 0.293964 17.7814C0.298651 15.8498 0.296894 13.9187 0.296894 11.9871H0.296308Z" fill="black"/>
<path d="M4.31787 2.15375C4.32549 3.34482 3.35587 4.33553 2.17593 4.34198C0.98895 4.34842 0 3.3583 0 2.16195C0 0.984935 0.966688 0.010631 2.14605 8.53673e-05C3.33419 -0.0104603 4.31025 0.957399 4.31787 2.15375Z" fill="black"/>
</svg>
