<svg width="14" height="14" viewBox="0 0 14 14" fill="none" xmlns="http://www.w3.org/2000/svg">
<path d="M12.8157 10.6923C12.8157 10.9023 12.769 11.1182 12.6698 11.3282C12.5707 11.5382 12.4423 11.7365 12.2732 11.9232C11.9873 12.2382 11.6723 12.4657 11.3165 12.6115C10.9665 12.7573 10.5873 12.8332 10.179 12.8332C9.58401 12.8332 8.94817 12.6932 8.27734 12.4073C7.60651 12.1215 6.93567 11.7365 6.27067 11.2523C5.59984 10.7623 4.964 10.2198 4.35734 9.619C3.7565 9.01234 3.214 8.3765 2.72984 7.7115C2.2515 7.0465 1.8665 6.3815 1.5865 5.72234C1.3065 5.05734 1.1665 4.4215 1.1665 3.81484C1.1665 3.41817 1.2365 3.039 1.3765 2.689C1.5165 2.33317 1.73817 2.0065 2.04734 1.71484C2.42067 1.34734 2.829 1.1665 3.26067 1.1665C3.424 1.1665 3.58734 1.2015 3.73317 1.2715C3.88484 1.3415 4.019 1.4465 4.124 1.59817L5.47734 3.50567C5.58234 3.6515 5.65817 3.78567 5.71067 3.914C5.76317 4.0365 5.79234 4.159 5.79234 4.26984C5.79234 4.40984 5.75151 4.54984 5.66984 4.684C5.59401 4.81817 5.48317 4.95817 5.34317 5.09817L4.89984 5.559C4.83567 5.62317 4.8065 5.699 4.8065 5.79234C4.8065 5.839 4.81234 5.87984 4.82401 5.9265C4.84151 5.97317 4.85901 6.00817 4.87067 6.04317C4.97567 6.23567 5.1565 6.4865 5.41317 6.78984C5.67567 7.09317 5.95567 7.40234 6.25901 7.7115C6.57401 8.02067 6.87734 8.3065 7.18651 8.569C7.48984 8.82567 7.74067 9.00067 7.93901 9.10567C7.96817 9.11734 8.00317 9.13484 8.04401 9.15234C8.09067 9.16984 8.13734 9.17567 8.18984 9.17567C8.28901 9.17567 8.36484 9.14067 8.42901 9.0765L8.87234 8.639C9.01817 8.49317 9.15817 8.38234 9.29234 8.31234C9.42651 8.23067 9.56067 8.18984 9.70651 8.18984C9.81734 8.18984 9.93401 8.21317 10.0623 8.26567C10.1907 8.31817 10.3248 8.394 10.4707 8.49317L12.4015 9.864C12.5532 9.969 12.6582 10.0915 12.7223 10.2373C12.7807 10.3832 12.8157 10.529 12.8157 10.6923Z" stroke="black" stroke-width="1.2" stroke-miterlimit="10"/>
<path d="M10.7917 5.24992C10.7917 4.89992 10.5175 4.36325 10.1092 3.92575C9.73583 3.52325 9.24 3.20825 8.75 3.20825" stroke="black" stroke-width="1.2" stroke-linecap="round" stroke-linejoin="round"/>
<path d="M12.8333 5.24984C12.8333 2.99234 11.0075 1.1665 8.75 1.1665" stroke="black" stroke-width="1.2" stroke-linecap="round" stroke-linejoin="round"/>
</svg>
