<svg width="16" height="16" viewBox="0 0 16 16" fill="none" xmlns="http://www.w3.org/2000/svg">
<path d="M14.1665 14.2693C12.5632 11.9627 10.9598 9.65631 9.35337 7.3519C9.29604 7.26954 9.29127 7.22123 9.36059 7.14197C10.5937 5.73179 11.8233 4.31865 13.0536 2.90619C13.3103 2.61148 13.5666 2.31663 13.8387 2.00375C13.5245 2.00375 13.2327 2.01129 12.9417 2.00039C12.8059 1.99527 12.7212 2.04076 12.634 2.14142C11.386 3.58134 10.1325 5.01654 8.88449 6.45659C8.80374 6.54972 8.7799 6.52711 8.72148 6.44287C7.71427 4.99017 6.70365 3.53975 5.69643 2.08705C5.65136 2.02205 5.6056 2.00173 5.52865 2.002C4.38757 2.00442 3.24649 2.00348 2.10541 2.00456C2.07231 2.00456 2.03405 1.98787 2.00204 2.02111C2.02737 2.05893 2.05134 2.09566 2.0764 2.13173C3.61813 4.34839 5.15946 6.56519 6.70378 8.78011C6.75662 8.85601 6.75962 8.89759 6.6967 8.96959C5.41862 10.4318 4.14339 11.8964 2.86858 13.3613C2.57701 13.6964 2.28939 14.035 2 14.372H3.07585C3.10894 14.3492 3.14599 14.3332 3.17309 14.3008C3.42421 13.9999 3.68909 13.7105 3.94443 13.4133C4.37096 12.9166 4.80484 12.4263 5.23327 11.9314C5.60887 11.4975 5.98759 11.0663 6.36278 10.6321C6.62698 10.3263 6.89567 10.0244 7.15891 9.71781C7.2379 9.62589 7.25424 9.62885 7.32001 9.72279C7.83179 10.4542 8.34207 11.1865 8.85045 11.9202C9.37026 12.6704 9.89429 13.418 10.4132 14.1689C10.463 14.2409 10.504 14.3226 10.5827 14.372H14.2262C14.2217 14.329 14.1888 14.3017 14.1665 14.2694V14.2693ZM12.649 13.6024C12.1642 13.6036 11.6793 13.6014 11.1944 13.6052C11.1193 13.6057 11.0787 13.5783 11.0376 13.5203C8.53736 9.98426 6.0358 6.44933 3.53452 2.91426C3.51368 2.88493 3.49366 2.85492 3.45962 2.80526C4.00599 2.80526 4.53043 2.80688 5.05487 2.80351C5.13005 2.80297 5.1502 2.85371 5.18125 2.89771C6.02572 4.08988 6.86979 5.28246 7.71372 6.47503C9.37598 8.82398 11.0381 11.1731 12.7001 13.5221C12.7136 13.5413 12.7266 13.5609 12.7393 13.5796C12.7136 13.6194 12.6776 13.6025 12.6487 13.6025L12.649 13.6024Z" fill="#666666"/>
</svg>
