<svg width="19" height="19" viewBox="0 0 19 19" fill="none" xmlns="http://www.w3.org/2000/svg">
<path d="M17.9356 18.0872C15.5721 14.6869 13.2084 11.2868 10.8402 7.88967C10.7557 7.76826 10.7487 7.69704 10.8508 7.58019C12.6687 5.50134 14.4814 3.41812 16.295 1.33589C16.6735 0.901428 17.0513 0.466771 17.4524 0.00553012C16.9893 0.00553012 16.559 0.0166396 16.13 0.000570539C15.9299 -0.00696802 15.805 0.0600855 15.6765 0.208476C13.8367 2.33117 11.9887 4.44693 10.149 6.56983C10.0299 6.70711 9.9948 6.67378 9.90868 6.54959C8.42386 4.40805 6.93403 2.26987 5.44921 0.128329C5.38276 0.0325102 5.3153 0.00255437 5.20187 0.00295114C3.51971 0.00652203 1.83755 0.00513335 0.155388 0.00672041C0.106603 0.00672041 0.0501898 -0.0178791 0.00301139 0.0311215C0.0403526 0.0868672 0.0756863 0.141026 0.112626 0.194192C2.38542 3.46196 4.65762 6.72992 6.93423 9.99511C7.01212 10.107 7.01654 10.1683 6.92379 10.2744C5.03966 12.4301 3.15975 14.5891 1.28044 16.7487C0.850617 17.2426 0.426614 17.7418 0 18.2385H1.586C1.63478 18.205 1.68939 18.1814 1.72934 18.1336C2.09954 17.69 2.49002 17.2635 2.86644 16.8252C3.49522 16.093 4.13484 15.3703 4.76643 14.6406C5.32012 14.0011 5.87843 13.3654 6.43153 12.7253C6.821 12.2745 7.2171 11.8294 7.60517 11.3774C7.72161 11.2419 7.7457 11.2463 7.84266 11.3848C8.59712 12.463 9.34936 13.5426 10.0988 14.6242C10.8651 15.7302 11.6376 16.8322 12.4025 17.9392C12.476 18.0453 12.5364 18.1657 12.6525 18.2385H18.0236C18.0169 18.1752 17.9686 18.135 17.9356 18.0874V18.0872ZM15.6986 17.104C14.9839 17.1058 14.269 17.1026 13.5543 17.1081C13.4434 17.1089 13.3836 17.0685 13.323 16.983C9.63725 11.7702 5.9495 6.55911 2.26216 1.34779C2.23144 1.30454 2.20193 1.2603 2.15174 1.1871C2.95719 1.1871 3.73031 1.18948 4.50343 1.18452C4.61425 1.18373 4.64397 1.25852 4.68974 1.32339C5.93465 3.08086 7.17895 4.83893 8.42306 6.59701C10.8735 10.0598 13.3238 13.5228 15.7739 16.9857C15.7937 17.0139 15.813 17.0429 15.8317 17.0704C15.7937 17.1292 15.7407 17.1042 15.6982 17.1042L15.6986 17.104Z" fill="black"/>
</svg>
